<svg width="244" height="11" viewBox="0 0 244 11" fill="none" xmlns="http://www.w3.org/2000/svg">
<path d="M117.576 10.098C116.671 10.098 115.835 9.888 115.07 9.468C114.314 9.03867 113.712 8.446 113.264 7.69C112.825 6.92467 112.606 6.066 112.606 5.114C112.606 4.162 112.825 3.308 113.264 2.552C113.712 1.796 114.314 1.208 115.07 0.787999C115.835 0.358666 116.671 0.143999 117.576 0.143999C118.491 0.143999 119.326 0.358666 120.082 0.787999C120.847 1.208 121.449 1.796 121.888 2.552C122.327 3.308 122.546 4.162 122.546 5.114C122.546 6.066 122.327 6.92467 121.888 7.69C121.449 8.446 120.847 9.03867 120.082 9.468C119.326 9.888 118.491 10.098 117.576 10.098ZM117.576 8.712C118.22 8.712 118.794 8.56733 119.298 8.278C119.802 7.97933 120.194 7.55933 120.474 7.018C120.763 6.46733 120.908 5.83267 120.908 5.114C120.908 4.39533 120.763 3.76533 120.474 3.224C120.194 2.68267 119.802 2.26733 119.298 1.978C118.794 1.68867 118.22 1.544 117.576 1.544C116.932 1.544 116.358 1.68867 115.854 1.978C115.35 2.26733 114.953 2.68267 114.664 3.224C114.384 3.76533 114.244 4.39533 114.244 5.114C114.244 5.83267 114.384 6.46733 114.664 7.018C114.953 7.55933 115.35 7.97933 115.854 8.278C116.358 8.56733 116.932 8.712 117.576 8.712ZM129.17 10L126.93 6.108H125.712V10H124.116V0.269999H127.476C128.223 0.269999 128.853 0.400666 129.366 0.661999C129.889 0.923333 130.276 1.27333 130.528 1.712C130.79 2.15067 130.92 2.64067 130.92 3.182C130.92 3.81667 130.734 4.39533 130.36 4.918C129.996 5.43133 129.432 5.78133 128.666 5.968L131.074 10H129.17ZM125.712 4.834H127.476C128.074 4.834 128.522 4.68467 128.82 4.386C129.128 4.08733 129.282 3.686 129.282 3.182C129.282 2.678 129.133 2.286 128.834 2.006C128.536 1.71667 128.083 1.572 127.476 1.572H125.712V4.834Z" fill="white"/>
<rect y="4" width="100" height="2" fill="url(#paint0_linear_1387_17849)"/>
<rect x="144" y="4" width="100" height="2" fill="url(#paint1_linear_1387_17849)"/>
<defs>
<linearGradient id="paint0_linear_1387_17849" x1="55" y1="3.68519" x2="55.0023" y2="7.23173" gradientUnits="userSpaceOnUse">
<stop stop-color="#FD749B"/>
<stop offset="1" stop-color="#281AC8"/>
</linearGradient>
<linearGradient id="paint1_linear_1387_17849" x1="199" y1="3.68519" x2="199.002" y2="7.23173" gradientUnits="userSpaceOnUse">
<stop stop-color="#FD749B"/>
<stop offset="1" stop-color="#281AC8"/>
</linearGradient>
</defs>
</svg>
