<svg width="193" height="126" viewBox="0 0 193 126" fill="none" xmlns="http://www.w3.org/2000/svg">
<path d="M172.331 103.615L162.677 99.1172L166.16 93.6875L176.658 98.7903L173.575 103.083L172.331 103.615Z" fill="#FA849B"/>
<path d="M174.262 96.6875C174.262 96.6875 172.935 102.605 168.335 102.488L167.203 116.484L179.955 98.6925L174.262 96.6875Z" fill="#181F42"/>
<path d="M170.208 117.363L182.904 99.6328L181.229 98.4331L168.533 116.164L170.208 117.363Z" fill="white"/>
<path d="M168.184 104.316C169.031 104.045 169.918 103.915 170.808 103.931" stroke="white" stroke-width="1.55" stroke-linecap="round" stroke-linejoin="round"/>
<path d="M167.892 106.371C168.74 106.102 169.626 105.972 170.516 105.985" stroke="white" stroke-width="1.55" stroke-linecap="round" stroke-linejoin="round"/>
<path d="M167.589 108.425C168.437 108.156 169.324 108.026 170.213 108.04" stroke="white" stroke-width="1.55" stroke-linecap="round" stroke-linejoin="round"/>
<path d="M149.919 44.8359C149.919 44.8359 143.607 68.3841 142.68 73.0235C141.753 77.6629 139.894 86.9514 143.792 90.298C147.69 93.6446 162.676 101.67 162.676 101.67L168.184 91.7762L159.261 86.4099L149.919 44.8359Z" fill="#243B77"/>
<path d="M158.427 119.715L156.456 109.246L162.896 108.914L164.866 120.417H159.583L158.427 119.715Z" fill="#FA849B"/>
<path d="M165.189 117.25C165.189 117.25 159.598 119.621 157.017 115.82L144.963 123.045H166.852L165.189 117.25Z" fill="#181F42"/>
<path d="M144.987 125.109H166.877V123.041H144.987V125.109Z" fill="white"/>
<path d="M155.446 116.75C156.161 117.281 156.783 117.926 157.29 118.657" stroke="white" stroke-width="1.55" stroke-linecap="round" stroke-linejoin="round"/>
<path d="M153.603 117.695C154.316 118.23 154.939 118.875 155.447 119.608" stroke="white" stroke-width="1.55" stroke-linecap="round" stroke-linejoin="round"/>
<path d="M151.759 118.664C152.473 119.195 153.096 119.84 153.603 120.572" stroke="white" stroke-width="1.55" stroke-linecap="round" stroke-linejoin="round"/>
<path d="M149.919 44.8359L149.289 80.3558C149.27 81.6308 149.372 82.9049 149.592 84.1609L154.87 111.553H165.939L162.856 80.6582C162.988 74.9749 164.876 68.6134 165.578 61.6811C165.578 61.6811 167.744 48.8265 161.807 44.8994L149.919 44.8359Z" fill="#2B4183"/>
<path d="M142.85 39.9618L124.8 33.3516L122.697 36.8689L140.304 46.1965C140.971 46.4513 141.693 46.5241 142.398 46.4074C143.102 46.2907 143.763 45.9887 144.312 45.5323C144.861 45.076 145.279 44.4818 145.523 43.8106C145.767 43.1395 145.827 42.4156 145.699 41.7132V41.7132C145.45 40.2984 144.206 40.4448 142.85 39.9618Z" fill="#FA849B"/>
<path d="M122.576 30.6727C122.417 30.504 122.217 30.379 121.996 30.3098C121.775 30.2406 121.539 30.2295 121.313 30.2776C121.182 30.3047 121.061 30.3639 120.959 30.4498C120.857 30.5358 120.779 30.6457 120.73 30.7698C120.682 30.8938 120.665 31.028 120.682 31.1601C120.698 31.2922 120.747 31.4181 120.825 31.5264L121.083 31.9508C120.508 32.1753 119.308 32.2289 117.122 29.9995C116.952 29.8199 116.725 29.703 116.48 29.6676C116.235 29.6322 115.985 29.6803 115.771 29.8043C115.632 29.8997 115.533 30.0436 115.494 30.2077C115.455 30.3719 115.479 30.5446 115.561 30.6922L115.59 30.7361C115.446 30.6844 115.293 30.6659 115.141 30.6819C114.989 30.698 114.842 30.7482 114.712 30.8288C114.573 30.9251 114.474 31.0701 114.436 31.2354C114.398 31.4006 114.424 31.5741 114.507 31.7216C114.528 31.7643 114.553 31.8051 114.58 31.8435C114.434 31.8589 114.294 31.9091 114.171 31.9899C114.031 32.0853 113.933 32.2294 113.895 32.3939C113.857 32.5583 113.882 32.731 113.966 32.8778C114.012 32.9739 114.075 33.0613 114.151 33.1363L114.239 33.2192L114.195 33.2436C114.058 33.3405 113.961 33.4846 113.923 33.6484C113.885 33.8122 113.909 33.9842 113.99 34.1315C114.038 34.2296 114.102 34.3188 114.18 34.3949C114.728 34.9572 115.328 35.4667 115.971 35.917V35.917H116C116.266 36.0943 116.541 36.2572 116.825 36.4049C118.088 37.1415 120.796 36.5268 123.123 36.8927L124.942 33.4778L122.576 30.6727Z" fill="#FA849B"/>
<path d="M116.182 42.9565L124.91 23.0156L104.969 14.2871L96.2408 34.228L116.182 42.9565Z" fill="#FFCD2E"/>
<path d="M122.873 31.0304L121.102 28.9766C121.035 28.8981 120.951 28.8352 120.856 28.792C120.762 28.7489 120.66 28.7266 120.556 28.7266C120.452 28.7266 120.35 28.7489 120.255 28.792C120.161 28.8352 120.077 28.8981 120.01 28.9766V28.9766C119.917 29.0847 119.858 29.2179 119.84 29.3594C119.823 29.5009 119.848 29.6444 119.912 29.7718L120.805 31.5329C120.602 32.3056 120.592 33.1163 120.776 33.8937C120.959 34.6712 121.331 35.3916 121.858 35.9918L122.873 31.0304Z" fill="#FA849B"/>
<path d="M150.85 40.3344L144.279 45.564C143.632 46.0829 142.841 46.3886 142.014 46.4393C141.186 46.49 140.364 46.283 139.659 45.847V45.847C137.624 44.5932 136.38 43.4322 137.844 41.5442L145.064 34.2266L150.85 40.3344Z" fill="#FA849B"/>
<path d="M155.943 34.0527C155.943 34.0527 155.07 38.3652 149.884 42.2826L141.889 34.7357L148.377 27.5156L155.943 34.0527Z" fill="#7041FD"/>
<path d="M168.419 39.7556L182.317 57.274L185.464 55.1861C185.464 55.1861 177.488 40.341 173.785 35.6724C173.34 35.1136 172.754 34.6834 172.087 34.4261C171.42 34.1689 170.697 34.0937 169.992 34.2085C169.286 34.3232 168.624 34.6237 168.073 35.079C167.523 35.5343 167.103 36.1281 166.858 36.7993V36.7993C166.365 38.1506 167.497 38.6482 168.419 39.7556Z" fill="#FA849B"/>
<path d="M183.014 60.8133C183.072 61.0316 183.185 61.2315 183.342 61.3937C183.499 61.556 183.695 61.6753 183.912 61.7402C184.035 61.7804 184.167 61.7888 184.295 61.7647C184.423 61.7405 184.543 61.6845 184.644 61.6019C184.744 61.5193 184.822 61.4127 184.871 61.2919C184.919 61.1712 184.937 61.0401 184.921 60.9109V60.423C185.517 60.506 186.566 61.0133 187.409 63.9209C187.472 64.1535 187.611 64.3585 187.803 64.5027C187.996 64.6469 188.232 64.7221 188.473 64.7161C188.636 64.6969 188.785 64.6188 188.894 64.4965C189.003 64.3742 189.063 64.2163 189.063 64.0526C189.063 64.0526 189.063 64.0184 189.063 63.9989C189.162 64.1114 189.284 64.1998 189.422 64.2573C189.56 64.3148 189.709 64.3399 189.858 64.3307C190.021 64.3125 190.171 64.2345 190.279 64.1119C190.387 63.9892 190.446 63.8307 190.444 63.6672C190.449 63.6202 190.449 63.5727 190.444 63.5257C190.576 63.5817 190.72 63.6052 190.863 63.594C191.026 63.5759 191.177 63.4981 191.286 63.3756C191.395 63.2531 191.455 63.0945 191.454 62.9306C191.457 62.8251 191.444 62.7198 191.415 62.6183C191.415 62.5793 191.39 62.5452 191.381 62.5061H191.424C191.588 62.4891 191.739 62.4116 191.848 62.2889C191.957 62.1661 192.017 62.0069 192.015 61.8427C192.018 61.7388 192.005 61.635 191.976 61.5353C191.768 60.7996 191.494 60.0843 191.156 59.3986V59.3986V59.3693C191.008 59.0895 190.845 58.8176 190.668 58.5546C189.932 57.3399 187.331 56.6032 185.517 55.2031L182.316 57.2765L183.014 60.8133Z" fill="#FA849B"/>
<path d="M166.345 28.9453L172.687 34.4921C173.308 35.0404 173.746 35.7666 173.941 36.572C174.135 37.3775 174.077 38.2234 173.775 38.9949V38.9949C172.897 41.2146 171.975 42.6439 169.872 41.5365L161.364 35.7117L166.345 28.9453Z" fill="#FA849B"/>
<path d="M158.208 25.0781C162.009 25.3834 165.595 26.9691 168.379 29.576L164.071 37.5864L155.603 34.6594L158.208 25.0781Z" fill="#8155FF"/>
<path d="M151.349 25.564C151.349 25.564 146.095 27.0275 146.075 34.0622C146.075 37.9113 149.919 44.8436 149.919 44.8436L161.784 44.907C161.784 44.907 163.525 40.0725 164.569 35.7063C165.613 31.3401 162.276 27.1837 158.227 25.0859L151.349 25.564Z" fill="#8155FF"/>
<path d="M164.086 37.5839L159.427 34.2422L163.022 41.1988L164.086 37.5839Z" fill="#7041FD"/>
<path d="M154.344 27.8082C155.988 27.5642 156.574 26.4617 156.33 24.8177L154.5 15.3828L149.534 16.178L150.92 25.2763C150.977 25.6677 151.112 26.0439 151.316 26.3833C151.519 26.7226 151.788 27.0184 152.106 27.2536C152.424 27.4889 152.786 27.659 153.17 27.7541C153.554 27.8493 153.953 27.8677 154.344 27.8082Z" fill="#F8879D"/>
<path d="M153.363 17.2734C153.363 17.2734 154.973 22.3031 150.705 24.0154L150.31 21.0152L154.7 17.6979" fill="#32292A"/>
<path d="M149.681 21.6294C152.783 21.3367 155.086 18.8536 154.823 16.0876L153.964 7.02344H148.739C146.788 7.20394 144.158 9.76024 144.349 11.4774L145.261 17.1071C145.451 19.1366 147.076 21.8782 149.681 21.6294Z" fill="#F8879D"/>
<path d="M145.475 13.8516L144.284 16.8859C144.244 16.9588 144.225 17.0415 144.229 17.1247C144.234 17.2078 144.261 17.2881 144.309 17.3563C144.357 17.4245 144.423 17.4778 144.5 17.5102C144.576 17.5427 144.661 17.5529 144.743 17.5397L146.787 17.3494L145.475 13.8516Z" fill="#F8879D"/>
<path d="M146.514 12.433C146.514 12.433 145.401 12.4672 145.44 12.9209C145.44 12.9209 145.479 13.238 146.45 13.1892C147.421 13.1404 147.66 13.0428 147.714 12.7355C147.767 12.4282 147.031 12.3989 146.514 12.433Z" fill="#312725"/>
<path d="M146.572 14.6228C146.605 14.6917 146.622 14.7674 146.62 14.8438C146.619 14.9202 146.599 14.9951 146.563 15.0626C146.527 15.1301 146.476 15.1882 146.414 15.2323C146.351 15.2763 146.279 15.3051 146.204 15.3163C146.128 15.3275 146.051 15.3208 145.979 15.2967C145.906 15.2726 145.84 15.2319 145.786 15.1777C145.733 15.1235 145.692 15.0574 145.669 14.9848C145.645 14.9121 145.639 14.8349 145.65 14.7594C145.633 14.635 145.665 14.5087 145.738 14.4069C145.812 14.3052 145.922 14.2357 146.045 14.213C146.169 14.2016 146.292 14.2376 146.39 14.3137C146.488 14.3898 146.553 14.5003 146.572 14.6228Z" fill="#312725"/>
<path d="M146.217 18.1623C146.476 18.1405 146.723 18.0422 146.926 17.8797C147.13 17.7173 147.28 17.4981 147.358 17.25" stroke="#312725" stroke-width="0.6" stroke-linecap="round" stroke-linejoin="round"/>
<path d="M154.842 24.5469L158.208 25.0835C158.208 25.0835 154.671 30.8059 151.193 29.4351C147.183 27.8496 152.5 24.8396 152.5 24.8396L154.842 24.5469Z" fill="#F8879D"/>
<path d="M153.432 14.2493C152.677 14.0581 151.987 13.6659 151.437 13.1145C150.886 12.5631 150.495 11.873 150.305 11.1174L143.353 12.4882C143.353 12.4882 142.275 5.56574 150.598 4.25833C154.769 3.60462 157.428 5.6194 158.842 7.63907C159.483 8.60019 159.869 9.70901 159.962 10.8606C160.055 12.0122 159.853 13.1685 159.374 14.2201C158.459 16.1522 156.984 17.7638 155.14 18.8448L154.5 15.3811C154.5 15.3811 153.896 14.3713 153.432 14.2493Z" fill="#32292A"/>
<path d="M156.763 13.7569C156.747 14.1824 156.605 14.5937 156.357 14.9393C156.108 15.2849 155.763 15.5495 155.364 15.7C154.966 15.8505 154.532 15.8803 154.117 15.7856C153.702 15.6909 153.324 15.4759 153.03 15.1676C152.736 14.8592 152.54 14.4711 152.466 14.0518C152.392 13.6325 152.442 13.2006 152.612 12.8101C152.782 12.4196 153.063 12.0878 153.421 11.8562C153.778 11.6246 154.196 11.5035 154.621 11.5079C154.91 11.5136 155.195 11.5764 155.459 11.6928C155.723 11.8092 155.962 11.9768 156.161 12.1859C156.36 12.395 156.516 12.6415 156.619 12.9111C156.723 13.1808 156.771 13.4682 156.763 13.7569Z" fill="#F8879D"/>
<path d="M153.855 14.2797C153.855 14.2797 153.855 12.66 155.368 12.9186" stroke="#312725" stroke-width="0.6" stroke-linecap="round" stroke-linejoin="round"/>
<path d="M167.833 4.87152C168.011 5.92567 167.872 7.00895 167.435 7.98436C166.997 8.95977 166.28 9.7835 165.374 10.3514C164.468 10.9193 163.415 11.2058 162.346 11.1748C161.277 11.1437 160.242 10.7965 159.371 10.177C158.499 9.55747 157.831 8.6935 157.451 7.69433C157.071 6.69516 156.995 5.60567 157.234 4.56364C157.473 3.5216 158.016 2.57383 158.794 1.84017C159.571 1.1065 160.549 0.619908 161.603 0.441913C163.016 0.204581 164.466 0.537709 165.634 1.36819C166.802 2.19866 167.593 3.45863 167.833 4.87152V4.87152Z" fill="#32292A"/>
<circle r="39.396" transform="matrix(-1 0 0 1 69.9781 66.8022)" fill="#FD749B"/>
<path d="M74.1123 86.1148L31.2175 40.5391" stroke="url(#paint0_linear_1387_17535)" stroke-width="5" stroke-linecap="round" stroke-linejoin="round"/>
<path d="M68.75 40.5391L25.8552 86.1148" stroke="url(#paint1_linear_1387_17535)" stroke-width="5" stroke-linecap="round" stroke-linejoin="round"/>
<path d="M91.8472 82.4277C92.0549 82.3391 92.1834 82.1277 92.1659 81.9026C91.9207 78.7527 92.3198 77.7604 94.6768 75.6568C94.8449 75.5063 94.8988 75.2652 94.8102 75.0573C94.7216 74.8496 94.5101 74.7214 94.2852 74.7388C91.1353 74.9841 90.143 74.585 88.0394 72.228C87.889 72.0594 87.6477 72.0057 87.4398 72.0944C87.2319 72.183 87.1041 72.3942 87.1212 72.6196C87.3664 75.7693 86.9673 76.7616 84.6104 78.8654C84.4422 79.0157 84.3883 79.2571 84.4769 79.4647C84.5655 79.6726 84.777 79.8006 85.0019 79.7834C88.1519 79.5384 89.144 79.937 91.2477 82.2942C91.3985 82.4625 91.6396 82.5162 91.8472 82.4277Z" fill="white"/>
<path d="M22.8574 54.4356C21.8556 53.1855 18.5768 51.4545 15.3891 52.9932C12.1406 54.5612 10.7741 53.1503 9.65122 50.012C8.10291 45.6846 3.00258 45.8769 2.00073 49.0504" stroke="url(#paint2_linear_1387_17535)" stroke-width="3" stroke-linecap="round" stroke-linejoin="round"/>
<path d="M101.998 31.697L105.347 28.0925L104.277 23.29C104.217 23.022 104.315 22.7432 104.529 22.5712C104.742 22.3991 105.035 22.3631 105.285 22.4788L109.748 24.5505L113.984 22.048C114.498 21.7448 115.139 22.1632 115.067 22.7557L114.476 27.6407L118.165 30.8969C118.612 31.2916 118.413 32.0309 117.827 32.1453L112.999 33.0929C110.867 38.0107 111.023 37.7291 110.832 37.8826C110.716 37.9764 110.571 38.0335 110.415 38.0411C110.141 38.0545 109.883 37.9115 109.75 37.6717L107.357 33.3721L102.458 32.9059C101.865 32.8498 101.591 32.1346 101.998 31.697Z" fill="#FFA92C"/>
<path d="M112 31.2673L112.591 26.3823C112.663 25.7905 112.022 25.3712 111.508 25.6746L107.271 28.1771L105.146 27.1906L104.277 23.29C104.217 23.022 104.315 22.7432 104.529 22.5712C104.742 22.3991 105.035 22.3631 105.285 22.4788L109.748 24.5505L113.984 22.048C114.498 21.7448 115.139 22.1632 115.067 22.7557L114.476 27.6407L118.165 30.8969C118.612 31.2916 118.413 32.0309 117.827 32.1453L113.874 32.9211L112 31.2673Z" fill="#FF8828"/>
<defs>
<linearGradient id="paint0_linear_1387_17535" x1="50.5202" y1="33.3651" x2="47.7885" y2="114.091" gradientUnits="userSpaceOnUse">
<stop stop-color="#FD749B"/>
<stop offset="1" stop-color="#281AC8"/>
</linearGradient>
<linearGradient id="paint1_linear_1387_17535" x1="45.1579" y1="33.3651" x2="42.4262" y2="114.091" gradientUnits="userSpaceOnUse">
<stop stop-color="#FD749B"/>
<stop offset="1" stop-color="#281AC8"/>
</linearGradient>
<linearGradient id="paint2_linear_1387_17535" x1="27.5149" y1="49.5046" x2="24.5739" y2="60.4828" gradientUnits="userSpaceOnUse">
<stop stop-color="#FC58B3"/>
<stop offset="1" stop-color="#FEAE68"/>
</linearGradient>
</defs>
</svg>
