<svg width="90" height="92" viewBox="0 0 90 92" fill="none" xmlns="http://www.w3.org/2000/svg">
<path d="M89.975 47.0031C89.975 43.9031 89.675 40.7031 89.175 37.7031H45.875V55.4031H70.675C69.675 61.1031 66.375 66.1031 61.475 69.3031L76.275 80.8031C84.975 72.7031 89.975 60.9031 89.975 47.0031Z" fill="#4280EF"/>
<path d="M45.875 91.8047C58.275 91.8047 68.675 87.7047 76.275 80.7047L61.475 69.3047C57.375 72.1047 52.075 73.7047 45.875 73.7047C33.875 73.7047 23.775 65.6047 20.075 54.8047L4.875 66.5047C12.675 82.0047 28.475 91.8047 45.875 91.8047Z" fill="#34A353"/>
<path d="M20.075 54.7047C18.175 49.0047 18.175 42.8047 20.075 37.1047L4.875 25.3047C-1.625 38.3047 -1.625 53.6047 4.875 66.5047L20.075 54.7047Z" fill="#F6B704"/>
<path d="M45.875 18.2017C52.375 18.1017 58.775 20.6017 63.475 25.1017L76.575 11.9017C68.275 4.10174 57.275 -0.0982547 45.875 0.00174529C28.475 0.00174529 12.675 9.80175 4.875 25.3017L20.075 37.1017C23.775 26.2017 33.875 18.2017 45.875 18.2017Z" fill="#E54335"/>
</svg>
