<svg width="17" height="18" viewBox="0 0 17 18" fill="none" xmlns="http://www.w3.org/2000/svg">
<path d="M13.0908 5.12C12.6588 4.288 12.0588 3.664 11.2908 3.248C10.5228 2.816 9.63475 2.6 8.62675 2.6C7.52275 2.6 6.53875 2.848 5.67475 3.344C4.81075 3.84 4.13075 4.544 3.63475 5.456C3.15475 6.368 2.91475 7.424 2.91475 8.624C2.91475 9.824 3.15475 10.888 3.63475 11.816C4.13075 12.728 4.81075 13.432 5.67475 13.928C6.53875 14.424 7.52275 14.672 8.62675 14.672C10.1148 14.672 11.3228 14.256 12.2508 13.424C13.1788 12.592 13.7468 11.464 13.9548 10.04H7.69075V7.856H16.8828V9.992C16.7068 11.288 16.2428 12.48 15.4908 13.568C14.7548 14.656 13.7868 15.528 12.5868 16.184C11.4028 16.824 10.0828 17.144 8.62675 17.144C7.05875 17.144 5.62675 16.784 4.33075 16.064C3.03475 15.328 2.00275 14.312 1.23475 13.016C0.48275 11.72 0.10675 10.256 0.10675 8.624C0.10675 6.992 0.48275 5.528 1.23475 4.232C2.00275 2.936 3.03475 1.928 4.33075 1.208C5.64275 0.471999 7.07475 0.103999 8.62675 0.103999C10.4028 0.103999 11.9788 0.543999 13.3548 1.424C14.7468 2.288 15.7548 3.52 16.3788 5.12H13.0908Z" fill="white"/>
</svg>
