<svg width="1440" height="1024" viewBox="0 0 1440 1024" fill="none" xmlns="http://www.w3.org/2000/svg">
<rect width="1440" height="1024" fill="url(#paint0_linear_1393_18506)"/>
<circle cx="452.016" cy="741.146" r="149.026" transform="rotate(-90 452.016 741.146)" fill="#FD749B" fill-opacity="0.2"/>
<path d="M525.07 756.781L352.668 594.52" stroke="url(#paint1_linear_1393_18506)" stroke-opacity="0.25" stroke-width="5" stroke-linecap="round" stroke-linejoin="round"/>
<path d="M352.668 736.5L525.07 574.239" stroke="url(#paint2_linear_1393_18506)" stroke-opacity="0.25" stroke-width="5" stroke-linecap="round" stroke-linejoin="round"/>
<path d="M511.13 823.87C510.795 824.656 509.995 825.142 509.144 825.076C497.228 824.148 493.475 825.658 485.517 834.574C484.948 835.21 484.036 835.414 483.249 835.078C482.464 834.743 481.979 833.943 482.045 833.092C482.972 821.177 481.463 817.424 472.547 809.466C471.909 808.897 471.706 807.984 472.041 807.198C472.377 806.412 473.175 805.928 474.028 805.993C485.943 806.92 489.696 805.411 497.654 796.495C498.223 795.859 499.136 795.655 499.922 795.99C500.708 796.325 501.192 797.125 501.127 797.976C500.2 809.892 501.708 813.645 510.625 821.602C511.261 822.173 511.465 823.085 511.13 823.87Z" fill="white" fill-opacity="0.15"/>
<path d="M405.264 562.898C400.535 559.109 393.987 546.706 399.807 534.647C405.739 522.359 400.402 517.19 388.53 512.942C372.161 507.086 372.888 487.792 384.893 484.002" stroke="url(#paint3_linear_1393_18506)" stroke-opacity="0.25" stroke-width="3" stroke-linecap="round" stroke-linejoin="round"/>
<path d="M319.236 862.264L305.601 874.935L287.434 870.885C286.42 870.659 285.366 871.028 284.715 871.837C284.064 872.645 283.928 873.754 284.366 874.697L292.202 891.579L282.736 907.606C281.589 909.548 283.172 911.973 285.413 911.702L303.892 909.467L316.209 923.422C317.702 925.113 320.499 924.358 320.932 922.142L324.516 903.877C343.119 895.813 342.054 896.404 342.635 895.683C342.989 895.242 343.205 894.693 343.234 894.106C343.285 893.069 342.744 892.092 341.837 891.587L325.573 882.535L323.809 864.005C323.597 861.76 320.891 860.727 319.236 862.264Z" fill="#FFA92C" fill-opacity="0.12"/>
<path d="M317.61 900.1L299.132 902.336C296.893 902.607 295.307 900.184 296.455 898.24L305.921 882.213L302.189 874.174L287.434 870.885C286.42 870.659 285.366 871.028 284.715 871.837C284.064 872.645 283.928 873.754 284.366 874.697L292.202 891.579L282.736 907.606C281.589 909.548 283.172 911.973 285.413 911.702L303.892 909.467L316.209 923.422C317.702 925.113 320.499 924.358 320.932 922.142L323.866 907.189L317.61 900.1Z" fill="#FF8828" fill-opacity="0.12"/>
<circle cx="954.857" cy="335.018" r="149.026" fill="#FD749B" fill-opacity="0.25"/>
<path d="M939.216 408.074L1101.48 235.672" stroke="url(#paint4_linear_1393_18506)" stroke-opacity="0.5" stroke-width="5" stroke-linecap="round" stroke-linejoin="round"/>
<path d="M959.499 235.672L1121.76 408.074" stroke="url(#paint5_linear_1393_18506)" stroke-opacity="0.5" stroke-width="5" stroke-linecap="round" stroke-linejoin="round"/>
<path d="M872.13 394.128C871.344 393.793 870.858 392.993 870.924 392.142C871.852 380.226 870.342 376.473 861.426 368.515C860.79 367.946 860.586 367.034 860.922 366.247C861.257 365.462 862.057 364.977 862.908 365.043C874.823 365.97 878.576 364.461 886.534 355.545C887.103 354.907 888.016 354.704 888.802 355.039C889.588 355.375 890.072 356.173 890.007 357.026C889.08 368.941 890.589 372.694 899.505 380.653C900.141 381.221 900.345 382.134 900.01 382.92C899.675 383.706 898.875 384.19 898.024 384.125C886.108 383.198 882.355 384.706 874.398 393.623C873.827 394.259 872.915 394.463 872.13 394.128Z" fill="white" fill-opacity="0.25"/>
<path d="M1133.1 288.26C1136.89 283.531 1149.3 276.983 1161.35 282.803C1173.64 288.735 1178.81 283.398 1183.06 271.526C1188.92 255.157 1208.21 255.884 1212 267.889" stroke="url(#paint6_linear_1393_18506)" stroke-opacity="0.5" stroke-width="3" stroke-linecap="round" stroke-linejoin="round"/>
<path d="M833.735 202.236L821.064 188.601L825.114 170.434C825.34 169.42 824.971 168.366 824.162 167.715C823.354 167.064 822.245 166.928 821.302 167.366L804.42 175.202L788.393 165.736C786.451 164.589 784.026 166.172 784.297 168.413L786.532 186.892L772.577 199.209C770.886 200.702 771.641 203.499 773.857 203.932L792.122 207.516C800.186 226.119 799.595 225.054 800.316 225.635C800.757 225.989 801.306 226.205 801.893 226.234C802.93 226.285 803.907 225.744 804.412 224.837L813.464 208.573L831.994 206.809C834.239 206.597 835.272 203.891 833.735 202.236Z" fill="#FFA92C" fill-opacity="0.25"/>
<path d="M795.899 200.61L793.663 182.132C793.393 179.893 795.815 178.307 797.759 179.455L813.786 188.921L821.825 185.189L825.114 170.434C825.34 169.42 824.971 168.366 824.162 167.715C823.354 167.064 822.245 166.928 821.302 167.366L804.42 175.202L788.393 165.736C786.451 164.589 784.026 166.172 784.297 168.413L786.532 186.892L772.577 199.209C770.886 200.702 771.641 203.499 773.857 203.932L788.81 206.866L795.899 200.61Z" fill="#FF8828" fill-opacity="0.25"/>
<circle cx="1299.26" cy="910.614" r="67.4267" fill="#FD749B" fill-opacity="0.25"/>
<path d="M1292.18 943.675L1365.6 865.672" stroke="url(#paint7_linear_1393_18506)" stroke-opacity="0.5" stroke-width="2.26225" stroke-linecap="round" stroke-linejoin="round"/>
<path d="M1301.36 865.672L1374.77 943.675" stroke="url(#paint8_linear_1393_18506)" stroke-opacity="0.5" stroke-width="2.26225" stroke-linecap="round" stroke-linejoin="round"/>
<path d="M1261.83 937.364C1261.47 937.212 1261.25 936.85 1261.28 936.465C1261.7 931.074 1261.02 929.375 1256.99 925.775C1256.7 925.518 1256.61 925.105 1256.76 924.749C1256.91 924.394 1257.27 924.174 1257.66 924.204C1263.05 924.624 1264.75 923.941 1268.35 919.907C1268.6 919.618 1269.02 919.526 1269.37 919.678C1269.73 919.83 1269.95 920.191 1269.92 920.577C1269.5 925.968 1270.18 927.666 1274.21 931.267C1274.5 931.524 1274.59 931.937 1274.44 932.292C1274.29 932.648 1273.93 932.867 1273.54 932.838C1268.15 932.418 1266.46 933.101 1262.85 937.135C1262.6 937.423 1262.18 937.515 1261.83 937.364Z" fill="white" fill-opacity="0.25"/>
<path d="M1379.91 889.463C1381.62 887.323 1387.23 884.361 1392.69 886.994C1398.25 889.678 1400.59 887.263 1402.51 881.892C1405.16 874.486 1413.89 874.815 1415.6 880.246" stroke="url(#paint9_linear_1393_18506)" stroke-opacity="0.5" stroke-width="1.35735" stroke-linecap="round" stroke-linejoin="round"/>
<path d="M1244.46 850.539L1238.72 844.37L1240.56 836.15C1240.66 835.692 1240.49 835.215 1240.12 834.92C1239.76 834.626 1239.26 834.564 1238.83 834.762L1231.19 838.308L1223.94 834.025C1223.06 833.506 1221.97 834.222 1222.09 835.236L1223.1 843.597L1216.79 849.17C1216.02 849.845 1216.36 851.111 1217.36 851.306L1225.63 852.928C1229.28 861.345 1229.01 860.863 1229.34 861.126C1229.54 861.286 1229.78 861.384 1230.05 861.397C1230.52 861.42 1230.96 861.175 1231.19 860.765L1235.28 853.406L1243.67 852.608C1244.68 852.512 1245.15 851.288 1244.46 850.539Z" fill="#FFA92C" fill-opacity="0.25"/>
<path d="M1227.34 849.804L1226.33 841.443C1226.2 840.43 1227.3 839.712 1228.18 840.232L1235.43 844.515L1239.07 842.826L1240.56 836.15C1240.66 835.692 1240.49 835.215 1240.12 834.92C1239.76 834.626 1239.26 834.564 1238.83 834.762L1231.19 838.308L1223.94 834.025C1223.06 833.506 1221.97 834.222 1222.09 835.236L1223.1 843.597L1216.79 849.17C1216.02 849.845 1216.36 851.111 1217.36 851.306L1224.13 852.634L1227.34 849.804Z" fill="#FF8828" fill-opacity="0.25"/>
<ellipse cx="1329.14" cy="917.687" rx="50.3376" ry="60.3121" fill="#4E2461" fill-opacity="0.67"/>
<path d="M1323.86 947.257L1378.67 877.484" stroke="url(#paint10_linear_1393_18506)" stroke-opacity="0.25" stroke-width="2.26225" stroke-linecap="round" stroke-linejoin="round"/>
<path d="M1330.71 877.484L1385.52 947.257" stroke="url(#paint11_linear_1393_18506)" stroke-opacity="0.25" stroke-width="2.26225" stroke-linecap="round" stroke-linejoin="round"/>
<path d="M1301.2 941.615C1300.94 941.479 1300.77 941.156 1300.79 940.811C1301.11 935.989 1300.6 934.47 1297.59 931.249C1297.37 931.019 1297.3 930.65 1297.41 930.332C1297.53 930.014 1297.8 929.817 1298.09 929.844C1302.11 930.22 1303.38 929.609 1306.07 926C1306.26 925.742 1306.57 925.66 1306.83 925.796C1307.1 925.931 1307.26 926.255 1307.24 926.6C1306.93 931.422 1307.44 932.941 1310.45 936.162C1310.66 936.392 1310.73 936.761 1310.62 937.079C1310.5 937.397 1310.23 937.593 1309.95 937.567C1305.92 937.192 1304.65 937.802 1301.97 941.411C1301.77 941.668 1301.47 941.751 1301.2 941.615Z" fill="white" fill-opacity="0.25"/>
<path d="M1389.35 898.763C1390.63 896.85 1394.82 894.2 1398.89 896.555C1403.04 898.956 1404.79 896.796 1406.23 891.991C1408.2 885.366 1414.72 885.661 1416 890.519" stroke="url(#paint12_linear_1393_18506)" stroke-opacity="0.25" stroke-width="1.35735" stroke-linecap="round" stroke-linejoin="round"/>
<path d="M1288.23 863.95L1283.95 858.432L1285.32 851.079C1285.4 850.669 1285.27 850.242 1285 849.979C1284.72 849.715 1284.35 849.66 1284.03 849.837L1278.33 853.009L1272.92 849.178C1272.26 848.714 1271.44 849.354 1271.53 850.261L1272.29 857.74L1267.57 862.725C1267 863.329 1267.26 864.461 1268.01 864.636L1274.17 866.087C1276.9 873.616 1276.7 873.185 1276.94 873.419C1277.09 873.563 1277.28 873.65 1277.48 873.662C1277.83 873.683 1278.16 873.464 1278.33 873.097L1281.38 866.514L1287.64 865.801C1288.4 865.715 1288.75 864.62 1288.23 863.95Z" fill="#FFA92C" fill-opacity="0.25"/>
<path d="M1275.45 863.292L1274.7 855.813C1274.6 854.907 1275.42 854.265 1276.08 854.73L1281.49 858.561L1284.21 857.051L1285.32 851.079C1285.4 850.669 1285.27 850.242 1285 849.979C1284.72 849.715 1284.35 849.66 1284.03 849.837L1278.33 853.009L1272.92 849.178C1272.26 848.714 1271.44 849.354 1271.53 850.261L1272.29 857.74L1267.57 862.725C1267 863.329 1267.26 864.461 1268.01 864.636L1273.06 865.824L1275.45 863.292Z" fill="#FF8828" fill-opacity="0.15"/>
<circle cx="184.259" cy="234.614" r="67.4267" fill="#4E2461" fill-opacity="0.81"/>
<path d="M177.182 267.675L250.597 189.672" stroke="url(#paint13_linear_1393_18506)" stroke-opacity="0.25" stroke-width="2.26225" stroke-linecap="round" stroke-linejoin="round"/>
<path d="M186.358 189.672L259.773 267.675" stroke="url(#paint14_linear_1393_18506)" stroke-opacity="0.25" stroke-width="2.26225" stroke-linecap="round" stroke-linejoin="round"/>
<path d="M146.829 261.364C146.473 261.212 146.253 260.85 146.283 260.465C146.703 255.074 146.02 253.375 141.986 249.775C141.698 249.518 141.606 249.105 141.758 248.749C141.909 248.394 142.271 248.174 142.656 248.204C148.047 248.624 149.746 247.941 153.346 243.907C153.603 243.618 154.016 243.526 154.372 243.678C154.728 243.83 154.947 244.191 154.917 244.577C154.498 249.968 155.181 251.666 159.215 255.267C159.503 255.524 159.595 255.937 159.443 256.292C159.291 256.648 158.93 256.867 158.545 256.838C153.153 256.418 151.455 257.101 147.855 261.135C147.597 261.423 147.184 261.515 146.829 261.364Z" fill="white" fill-opacity="0.25"/>
<path d="M264.906 213.463C266.621 211.323 272.233 208.361 277.688 210.994C283.248 213.678 285.587 211.263 287.509 205.892C290.159 198.486 298.888 198.815 300.603 204.246" stroke="url(#paint15_linear_1393_18506)" stroke-opacity="0.25" stroke-width="1.35735" stroke-linecap="round" stroke-linejoin="round"/>
<path d="M129.456 174.539L123.723 168.37L125.556 160.15C125.658 159.692 125.491 159.215 125.125 158.92C124.759 158.626 124.258 158.564 123.831 158.762L116.193 162.308L108.941 158.025C108.062 157.506 106.965 158.222 107.088 159.236L108.099 167.597L101.785 173.17C101.02 173.845 101.362 175.111 102.365 175.306L110.628 176.928C114.277 185.345 114.01 184.863 114.336 185.126C114.535 185.286 114.784 185.384 115.049 185.397C115.519 185.42 115.96 185.175 116.189 184.765L120.285 177.406L128.668 176.608C129.684 176.512 130.152 175.288 129.456 174.539Z" fill="#FFA92C" fill-opacity="0.25"/>
<path d="M112.337 173.804L111.326 165.443C111.203 164.43 112.299 163.712 113.179 164.232L120.43 168.515L124.068 166.826L125.556 160.15C125.658 159.692 125.491 159.215 125.125 158.92C124.759 158.626 124.258 158.564 123.831 158.762L116.193 162.308L108.941 158.025C108.062 157.506 106.965 158.222 107.088 159.236L108.099 167.597L101.785 173.17C101.02 173.845 101.362 175.111 102.365 175.306L109.13 176.634L112.337 173.804Z" fill="#FF8828" fill-opacity="0.15"/>
<circle cx="259.259" cy="262.614" r="67.4267" fill="#4E2461" fill-opacity="0.42"/>
<path d="M252.182 295.675L325.597 217.672" stroke="url(#paint16_linear_1393_18506)" stroke-opacity="0.12" stroke-width="2.26225" stroke-linecap="round" stroke-linejoin="round"/>
<path d="M261.358 217.672L334.773 295.675" stroke="url(#paint17_linear_1393_18506)" stroke-opacity="0.12" stroke-width="2.26225" stroke-linecap="round" stroke-linejoin="round"/>
<path d="M221.829 289.364C221.473 289.212 221.253 288.85 221.283 288.465C221.703 283.074 221.02 281.375 216.986 277.775C216.698 277.518 216.606 277.105 216.758 276.749C216.909 276.394 217.271 276.174 217.656 276.204C223.047 276.624 224.746 275.941 228.346 271.907C228.603 271.618 229.016 271.526 229.372 271.678C229.728 271.83 229.947 272.191 229.917 272.577C229.498 277.968 230.181 279.666 234.215 283.267C234.503 283.524 234.595 283.937 234.443 284.292C234.291 284.648 233.93 284.867 233.545 284.838C228.153 284.418 226.455 285.101 222.855 289.135C222.597 289.423 222.184 289.515 221.829 289.364Z" fill="white" fill-opacity="0.25"/>
<path d="M339.906 241.463C341.621 239.323 347.233 236.361 352.688 238.994C358.248 241.678 360.587 239.263 362.509 233.892C365.159 226.486 373.888 226.815 375.603 232.246" stroke="url(#paint18_linear_1393_18506)" stroke-opacity="0.25" stroke-width="1.35735" stroke-linecap="round" stroke-linejoin="round"/>
<path d="M204.456 202.539L198.723 196.37L200.556 188.15C200.658 187.692 200.491 187.215 200.125 186.92C199.759 186.626 199.258 186.564 198.831 186.762L191.193 190.308L183.941 186.025C183.062 185.506 181.965 186.222 182.088 187.236L183.099 195.597L176.785 201.17C176.02 201.845 176.362 203.111 177.365 203.306L185.628 204.928C189.277 213.345 189.01 212.863 189.336 213.126C189.535 213.286 189.784 213.384 190.049 213.397C190.519 213.42 190.96 213.175 191.189 212.765L195.285 205.406L203.668 204.608C204.684 204.512 205.152 203.288 204.456 202.539Z" fill="#FFA92C" fill-opacity="0.25"/>
<path d="M187.337 201.804L186.326 193.443C186.203 192.43 187.299 191.712 188.179 192.232L195.43 196.515L199.068 194.826L200.556 188.15C200.658 187.692 200.491 187.215 200.125 186.92C199.759 186.626 199.258 186.564 198.831 186.762L191.193 190.308L183.941 186.025C183.062 185.506 181.965 186.222 182.088 187.236L183.099 195.597L176.785 201.17C176.02 201.845 176.362 203.111 177.365 203.306L184.13 204.634L187.337 201.804Z" fill="#FF8828" fill-opacity="0.15"/>
<defs>
<linearGradient id="paint0_linear_1393_18506" x1="-299.5" y1="-296" x2="1249" y2="1146" gradientUnits="userSpaceOnUse">
<stop stop-color="#0C0116"/>
<stop offset="0.530621" stop-color="#411F46"/>
<stop offset="1" stop-color="#1E0338"/>
</linearGradient>
<linearGradient id="paint1_linear_1393_18506" x1="325.531" y1="667.538" x2="630.898" y2="657.204" gradientUnits="userSpaceOnUse">
<stop stop-color="#FD749B"/>
<stop offset="1" stop-color="#281AC8"/>
</linearGradient>
<linearGradient id="paint2_linear_1393_18506" x1="325.531" y1="647.256" x2="630.898" y2="636.923" gradientUnits="userSpaceOnUse">
<stop stop-color="#FD749B"/>
<stop offset="1" stop-color="#281AC8"/>
</linearGradient>
<linearGradient id="paint3_linear_1393_18506" x1="386.611" y1="580.516" x2="428.139" y2="569.391" gradientUnits="userSpaceOnUse">
<stop stop-color="#FC58B3"/>
<stop offset="1" stop-color="#FEAE68"/>
</linearGradient>
<linearGradient id="paint4_linear_1393_18506" x1="1028.46" y1="208.534" x2="1038.79" y2="513.902" gradientUnits="userSpaceOnUse">
<stop stop-color="#FD749B"/>
<stop offset="1" stop-color="#281AC8"/>
</linearGradient>
<linearGradient id="paint5_linear_1393_18506" x1="1048.74" y1="208.534" x2="1059.08" y2="513.902" gradientUnits="userSpaceOnUse">
<stop stop-color="#FD749B"/>
<stop offset="1" stop-color="#281AC8"/>
</linearGradient>
<linearGradient id="paint6_linear_1393_18506" x1="1115.49" y1="269.607" x2="1126.61" y2="311.135" gradientUnits="userSpaceOnUse">
<stop stop-color="#FC58B3"/>
<stop offset="1" stop-color="#FEAE68"/>
</linearGradient>
<linearGradient id="paint7_linear_1393_18506" x1="1332.56" y1="853.394" x2="1337.24" y2="991.557" gradientUnits="userSpaceOnUse">
<stop stop-color="#FD749B"/>
<stop offset="1" stop-color="#281AC8"/>
</linearGradient>
<linearGradient id="paint8_linear_1393_18506" x1="1341.74" y1="853.394" x2="1346.41" y2="991.557" gradientUnits="userSpaceOnUse">
<stop stop-color="#FD749B"/>
<stop offset="1" stop-color="#281AC8"/>
</linearGradient>
<linearGradient id="paint9_linear_1393_18506" x1="1371.93" y1="881.024" x2="1376.97" y2="899.813" gradientUnits="userSpaceOnUse">
<stop stop-color="#FC58B3"/>
<stop offset="1" stop-color="#FEAE68"/>
</linearGradient>
<linearGradient id="paint10_linear_1393_18506" x1="1354" y1="866.502" x2="1359.01" y2="990.025" gradientUnits="userSpaceOnUse">
<stop stop-color="#FD749B"/>
<stop offset="1" stop-color="#281AC8"/>
</linearGradient>
<linearGradient id="paint11_linear_1393_18506" x1="1360.86" y1="866.502" x2="1365.86" y2="990.025" gradientUnits="userSpaceOnUse">
<stop stop-color="#FD749B"/>
<stop offset="1" stop-color="#281AC8"/>
</linearGradient>
<linearGradient id="paint12_linear_1393_18506" x1="1383.4" y1="891.214" x2="1388.64" y2="907.545" gradientUnits="userSpaceOnUse">
<stop stop-color="#FC58B3"/>
<stop offset="1" stop-color="#FEAE68"/>
</linearGradient>
<linearGradient id="paint13_linear_1393_18506" x1="217.56" y1="177.394" x2="222.235" y2="315.557" gradientUnits="userSpaceOnUse">
<stop stop-color="#FD749B"/>
<stop offset="1" stop-color="#281AC8"/>
</linearGradient>
<linearGradient id="paint14_linear_1393_18506" x1="226.737" y1="177.394" x2="231.412" y2="315.557" gradientUnits="userSpaceOnUse">
<stop stop-color="#FD749B"/>
<stop offset="1" stop-color="#281AC8"/>
</linearGradient>
<linearGradient id="paint15_linear_1393_18506" x1="256.935" y1="205.024" x2="261.968" y2="223.813" gradientUnits="userSpaceOnUse">
<stop stop-color="#FC58B3"/>
<stop offset="1" stop-color="#FEAE68"/>
</linearGradient>
<linearGradient id="paint16_linear_1393_18506" x1="292.56" y1="205.394" x2="297.235" y2="343.557" gradientUnits="userSpaceOnUse">
<stop stop-color="#FD749B"/>
<stop offset="1" stop-color="#281AC8"/>
</linearGradient>
<linearGradient id="paint17_linear_1393_18506" x1="301.737" y1="205.394" x2="306.412" y2="343.557" gradientUnits="userSpaceOnUse">
<stop stop-color="#FD749B"/>
<stop offset="1" stop-color="#281AC8"/>
</linearGradient>
<linearGradient id="paint18_linear_1393_18506" x1="331.935" y1="233.024" x2="336.968" y2="251.813" gradientUnits="userSpaceOnUse">
<stop stop-color="#FC58B3"/>
<stop offset="1" stop-color="#FEAE68"/>
</linearGradient>
</defs>
</svg>
