<svg width="30" height="30" viewBox="0 0 30 30" fill="none" xmlns="http://www.w3.org/2000/svg">
<path d="M25.8095 3.34375L16.4404 10.3023L18.173 6.19686L25.8095 3.34375Z" fill="#E2761B" stroke="#E2761B" stroke-linecap="round" stroke-linejoin="round"/>
<path d="M4.18066 3.34375L13.4745 10.3682L11.8266 6.19686L4.18066 3.34375Z" fill="#E4761B" stroke="#E4761B" stroke-linecap="round" stroke-linejoin="round"/>
<path d="M22.4387 19.4766L19.9434 23.2995L25.2823 24.7685L26.8172 19.5613L22.4387 19.4766Z" fill="#E4761B" stroke="#E4761B" stroke-linecap="round" stroke-linejoin="round"/>
<path d="M3.19238 19.5613L4.71781 24.7685L10.0568 23.2995L7.5615 19.4766L3.19238 19.5613Z" fill="#E4761B" stroke="#E4761B" stroke-linecap="round" stroke-linejoin="round"/>
<path d="M9.75534 13.0156L8.26758 15.2661L13.5689 15.5015L13.3806 9.80469L9.75534 13.0156Z" fill="#E4761B" stroke="#E4761B" stroke-linecap="round" stroke-linejoin="round"/>
<path d="M20.2361 13.0112L16.5638 9.73438L16.4414 15.4971L21.7333 15.2617L20.2361 13.0112Z" fill="#E4761B" stroke="#E4761B" stroke-linecap="round" stroke-linejoin="round"/>
<path d="M10.0566 23.2943L13.2393 21.7406L10.4898 19.5938L10.0566 23.2943Z" fill="#E4761B" stroke="#E4761B" stroke-linecap="round" stroke-linejoin="round"/>
<path d="M16.752 21.7406L19.944 23.2943L19.5015 19.5938L16.752 21.7406Z" fill="#E4761B" stroke="#E4761B" stroke-linecap="round" stroke-linejoin="round"/>
<path d="M19.944 23.2959L16.752 21.7422L17.0062 23.8232L16.9779 24.6989L19.944 23.2959Z" fill="#D7C1B3" stroke="#D7C1B3" stroke-linecap="round" stroke-linejoin="round"/>
<path d="M10.0566 23.2959L13.0227 24.6989L13.0039 23.8232L13.2393 21.7422L10.0566 23.2959Z" fill="#D7C1B3" stroke="#D7C1B3" stroke-linecap="round" stroke-linejoin="round"/>
<path d="M13.0694 18.2165L10.4141 17.435L12.2879 16.5781L13.0694 18.2165Z" fill="#233447" stroke="#233447" stroke-linecap="round" stroke-linejoin="round"/>
<path d="M16.9209 18.2165L17.7024 16.5781L19.5857 17.435L16.9209 18.2165Z" fill="#233447" stroke="#233447" stroke-linecap="round" stroke-linejoin="round"/>
<path d="M10.0568 23.2995L10.5088 19.4766L7.56152 19.5613L10.0568 23.2995Z" fill="#CD6116" stroke="#CD6116" stroke-linecap="round" stroke-linejoin="round"/>
<path d="M19.4922 19.4766L19.9442 23.2995L22.4395 19.5613L19.4922 19.4766Z" fill="#CD6116" stroke="#CD6116" stroke-linecap="round" stroke-linejoin="round"/>
<path d="M21.7333 15.2656L16.4414 15.501L16.931 18.2223L17.7126 16.5839L19.5958 17.4408L21.7333 15.2656Z" fill="#CD6116" stroke="#CD6116" stroke-linecap="round" stroke-linejoin="round"/>
<path d="M10.4145 17.4408L12.2977 16.5839L13.0698 18.2223L13.5689 15.501L8.26758 15.2656L10.4145 17.4408Z" fill="#CD6116" stroke="#CD6116" stroke-linecap="round" stroke-linejoin="round"/>
<path d="M8.26758 15.2656L10.4898 19.5971L10.4145 17.4408L8.26758 15.2656Z" fill="#E4751F" stroke="#E4751F" stroke-linecap="round" stroke-linejoin="round"/>
<path d="M19.5951 17.4408L19.501 19.5971L21.7326 15.2656L19.5951 17.4408Z" fill="#E4751F" stroke="#E4751F" stroke-linecap="round" stroke-linejoin="round"/>
<path d="M13.5694 15.5L13.0703 18.2213L13.6918 21.4322L13.833 17.2043L13.5694 15.5Z" fill="#E4751F" stroke="#E4751F" stroke-linecap="round" stroke-linejoin="round"/>
<path d="M16.4408 15.5L16.1865 17.1949L16.2995 21.4322L16.9304 18.2213L16.4408 15.5Z" fill="#E4751F" stroke="#E4751F" stroke-linecap="round" stroke-linejoin="round"/>
<path d="M16.9307 18.219L16.2998 21.43L16.7518 21.7407L19.5013 19.5938L19.5955 17.4375L16.9307 18.219Z" fill="#F6851B" stroke="#F6851B" stroke-linecap="round" stroke-linejoin="round"/>
<path d="M10.4141 17.4375L10.4894 19.5938L13.2389 21.7407L13.6909 21.43L13.0694 18.219L10.4141 17.4375Z" fill="#F6851B" stroke="#F6851B" stroke-linecap="round" stroke-linejoin="round"/>
<path d="M16.9775 24.6999L17.0058 23.8242L16.7704 23.617H13.2205L13.0039 23.8242L13.0227 24.6999L10.0566 23.2969L11.0924 24.1443L13.1922 25.6038H16.7986L18.9079 24.1443L19.9436 23.2969L16.9775 24.6999Z" fill="#C0AD9E" stroke="#C0AD9E" stroke-linecap="round" stroke-linejoin="round"/>
<path d="M16.7516 21.7404L16.2996 21.4297H13.6913L13.2393 21.7404L13.0039 23.8214L13.2205 23.6142H16.7704L17.0058 23.8214L16.7516 21.7404Z" fill="#161616" stroke="#161616" stroke-linecap="round" stroke-linejoin="round"/>
<path d="M26.2048 10.7543L27.0052 6.91249L25.8094 3.34375L16.751 10.0669L20.235 13.0142L25.1596 14.4549L26.2519 13.1837L25.7811 12.8447L26.5344 12.1573L25.9506 11.7053L26.7039 11.1309L26.2048 10.7543Z" fill="#763D16" stroke="#763D16" stroke-linecap="round" stroke-linejoin="round"/>
<path d="M2.99414 6.91249L3.79452 10.7543L3.28604 11.1309L4.03934 11.7053L3.46495 12.1573L4.21825 12.8447L3.74744 13.1837L4.8303 14.4549L9.75497 13.0142L13.239 10.0669L4.18058 3.34375L2.99414 6.91249Z" fill="#763D16" stroke="#763D16" stroke-linecap="round" stroke-linejoin="round"/>
<path d="M25.1601 14.4563L20.2354 13.0156L21.7326 15.2661L19.501 19.5975L22.4388 19.5599H26.8174L25.1601 14.4563Z" fill="#F6851B" stroke="#F6851B" stroke-linecap="round" stroke-linejoin="round"/>
<path d="M9.75547 13.0156L4.8308 14.4563L3.19238 19.5599H7.5615L10.4899 19.5975L8.26771 15.2661L9.75547 13.0156Z" fill="#F6851B" stroke="#F6851B" stroke-linecap="round" stroke-linejoin="round"/>
<path d="M16.4411 15.4985L16.7518 10.0654L18.1831 6.19531H11.8271L13.2396 10.0654L13.5691 15.4985L13.6821 17.2123L13.6916 21.4307H16.2998L16.3187 17.2123L16.4411 15.4985Z" fill="#F6851B" stroke="#F6851B" stroke-linecap="round" stroke-linejoin="round"/>
</svg>
