<svg width="121" height="183" viewBox="0 0 121 183" fill="none" xmlns="http://www.w3.org/2000/svg">
<path d="M1.90039 105L6.30039 103.1L60.5004 79.5L119.1 105L97.1004 150.5L43.3004 158.1L2.80039 114.4L1.90039 105Z" fill="#133444"/>
<path d="M107 77C97.3004 65.3 83.6004 57.8 68.6004 55.8L67.6004 55.7C62.9004 55.1 58.2004 55.1 53.5004 55.7L52.5004 55.8C37.5004 57.8 23.8004 65.4 14.1004 77L11.7004 81L7.60039 87.7L4.60039 92.6C4.60039 92.7 4.50039 92.9 4.40039 93V93.1L10.9004 97L52.4004 121.6L60.4004 126.3V67.6L52.4004 71.2V62.4L60.4004 58.8L68.4004 62.4L109.2 81L107 77Z" fill="#C42370"/>
<path d="M120.9 119.6C120.8 138.9 112.1 157.1 97.2 169.3C91.5 174 85.1 177.5 78.1 179.9C72.4 181.8 66.5 182.7 60.5 182.7C27.1 182.7 0 153 0 119.6C0 114.7 0.599999 109.8 1.8 105L60.4 139.7L119 105C120.3 109.8 121 114.7 120.9 119.6Z" fill="#1C4D6B"/>
<path d="M53.5 55.7031L60.5 58.8031L52.5 62.5031V55.2031L53.5 55.7031Z" fill="black"/>
<path d="M52.5 71.3016L60.5 67.6016V126.402L52.5 121.602V71.3016Z" fill="black"/>
<path d="M60.5 67.6016V126.402L116.7 93.2016L60.5 67.6016Z" fill="#1D4259"/>
<path d="M60.5 0V67.6L116.7 93.2L60.5 0Z" fill="#4B6B9A"/>
<path d="M60.4998 67.6016V126.302L52.4998 121.602L4.39981 93.2016H4.2998H4.39981C4.39981 93.1016 4.49981 92.9016 4.59981 92.8016L11.5998 81.1016L52.3998 62.6016V71.3016L60.4998 67.6016Z" fill="#343535"/>
<path d="M60.5004 67.6016V126.402L52.5004 121.602L4.40039 93.2016L4.50039 93.1016L52.5004 71.3016L60.5004 67.6016Z" fill="#3E5578"/>
<path d="M60.5004 0V67.6L4.40039 93.2L60.5004 0Z" fill="#6DB2D8"/>
<path d="M37.7998 177.898C38.5998 178.298 39.4998 178.598 40.2998 178.898C39.4998 178.598 38.6998 178.198 37.7998 177.898Z" fill="#335F8A"/>
<path d="M40.2998 178.898C41.0998 179.198 41.9998 179.598 42.8998 179.798C42.0998 179.598 41.1998 179.298 40.2998 178.898Z" fill="#335F8A"/>
<path d="M45.2002 180.5C45.9002 180.7 46.5002 180.9 47.2002 181C46.5002 180.9 45.8002 180.7 45.2002 180.5Z" fill="#335F8A"/>
<path d="M1.89961 105L60.4996 139.7C59.6996 145 58.2996 150.1 56.2996 155.1C51.5996 166.5 42.1996 178.5 23.7996 169.3C8.89961 157.1 0.199609 138.9 0.0996094 119.6C0.0996094 114.7 0.699609 109.8 1.89961 105Z" fill="#6DB2D8"/>
<path d="M97.2004 169.297L97.0004 169.397C96.7004 169.597 96.4004 169.897 96.1004 170.097L96.0004 170.197C95.7004 170.497 95.3004 170.697 95.0004 170.997C94.6004 171.297 94.3004 171.597 93.9004 171.797C93.5004 171.997 93.1004 172.297 92.8004 172.597C92.4004 172.897 92.1004 172.997 91.8004 173.297L91.6004 173.397C91.2004 173.597 90.9004 173.797 90.6004 174.097C90.6004 174.097 90.5004 174.097 90.5004 174.197C90.1004 174.397 89.8004 174.597 89.4004 174.897C89.0004 175.097 88.6004 175.297 88.2004 175.597C87.8004 175.797 87.4004 175.997 87.0004 176.197L85.8004 176.797C85.4004 176.997 85.0004 177.197 84.6004 177.397C84.2004 177.597 83.8004 177.797 83.4004 177.997C82.6004 178.397 81.7004 178.697 80.9004 178.997C80.1004 179.297 79.2004 179.597 78.3004 179.897C78.0004 179.997 77.6004 180.097 77.3004 180.197L76.1004 180.597C75.4004 180.797 74.8004 180.997 74.1004 181.097C73.9004 181.197 73.6004 181.197 73.3004 181.297L72.9004 181.397L71.8004 181.597C71.4004 181.697 71.2004 181.697 70.8004 181.797C70.5004 181.897 70.2004 181.897 69.9004 181.997C69.6004 181.997 69.2004 182.097 68.9004 182.197C68.7004 182.197 68.6004 182.197 68.4004 182.297L67.6004 182.397H67.2004C66.9004 182.397 66.6004 182.497 66.4004 182.497C66.1004 182.497 65.7004 182.597 65.4004 182.597C65.1004 182.597 64.9004 182.597 64.6004 182.597C64.3004 182.597 64.1004 182.597 63.9004 182.597C63.6004 182.597 63.3004 182.597 63.1004 182.597C62.9004 182.597 62.3004 182.597 62.0004 182.597H59.6004C59.2004 182.597 58.8004 182.597 58.5004 182.597C58.2004 182.597 57.9004 182.597 57.7004 182.597C57.5004 182.597 57.2004 182.597 57.0004 182.597C56.8004 182.597 56.5004 182.597 56.2004 182.597C55.9004 182.597 55.5004 182.497 55.2004 182.497C54.9004 182.497 54.6004 182.497 54.4004 182.397H54.0004C53.8004 182.397 53.5004 182.297 53.2004 182.297C53.0004 182.297 52.9004 182.297 52.7004 182.197C52.4004 182.197 52.0004 182.097 51.7004 181.997C51.4004 181.997 51.1004 181.897 50.8004 181.797C50.5004 181.797 50.1004 181.697 49.8004 181.597C49.5004 181.497 49.1004 181.397 48.7004 181.397L48.3004 181.297C48.0004 181.297 47.7004 181.197 47.5004 181.197C46.8004 180.997 46.1004 180.797 45.5004 180.697L44.3004 180.297C43.9004 180.197 43.6004 180.097 43.3004 179.997C42.4004 179.697 41.6004 179.397 40.7004 179.097C39.8004 178.797 39.0004 178.397 38.2004 178.097C37.8004 177.897 37.4004 177.697 37.0004 177.497L35.8004 176.897L34.6004 176.297C34.2004 176.097 33.8004 175.897 33.4004 175.697C33.0004 175.497 32.6004 175.297 32.2004 174.997C31.8004 174.797 31.5004 174.597 31.1004 174.297L31.0004 174.197C30.6004 173.997 30.3004 173.797 30.0004 173.497L29.8004 173.397C29.5004 173.197 29.1004 172.997 28.8004 172.697C28.5004 172.497 28.0004 172.197 27.7004 171.897C27.3004 171.597 26.9004 171.397 26.6004 171.097L25.6004 170.297L25.5004 170.197C25.2004 169.997 24.9004 169.697 24.6004 169.497L24.4004 169.397C42.7004 178.497 52.2004 166.497 56.9004 155.197C58.9004 150.297 60.3004 145.097 61.1004 139.797C61.9004 145.097 63.3004 150.197 65.3004 155.197C69.4004 166.397 78.9004 178.397 97.2004 169.297Z" fill="#529BBA"/>
<path d="M73.9004 181.102C74.6004 180.902 75.3004 180.702 75.9004 180.602C75.3004 180.702 74.6004 180.902 73.9004 181.102Z" fill="#335F8A"/>
<path d="M78.0996 179.798C78.9996 179.498 79.7996 179.198 80.6996 178.898C79.8996 179.298 78.9996 179.598 78.0996 179.798Z" fill="#335F8A"/>
<path d="M80.7002 178.898C81.5002 178.598 82.4002 178.198 83.2002 177.898C82.4002 178.198 81.6002 178.598 80.7002 178.898Z" fill="#335F8A"/>
<path d="M120.9 119.6C120.8 138.9 112.1 157.1 97.2 169.3C78.9 178.4 69.4 166.4 64.7 155.1C62.7 150.2 61.3 145 60.5 139.7L119.1 105C120.3 109.8 120.9 114.7 120.9 119.6Z" fill="#4B6B9A"/>
</svg>
