<svg width="100" height="100" viewBox="0 0 100 100" fill="none" xmlns="http://www.w3.org/2000/svg">
<path d="M0 0H78.2609C90.2671 0 100 9.71265 100 21.6938V78.3062C100 90.2873 90.2671 100 78.2609 100H21.7391C9.73294 100 0 90.2873 0 78.3062V0ZM14.108 12.5917V78.6659C14.108 83.4584 18.0012 87.3435 22.8037 87.3435H77.2851C82.0876 87.3435 85.9808 83.4584 85.9808 78.6659V21.2693C85.9808 16.4768 82.0876 12.5917 77.2851 12.5917H14.108ZM29.3065 12.5917H43.3217V44.6645V63.0618C43.3217 67.8543 39.4285 71.7393 34.626 71.7393H14.108V59.5425H29.3065V12.5917ZM29.3065 12.5917H43.3217H29.3065ZM14.108 71.7393V59.5425V71.7393ZM70.7824 87.3435H56.7671V55.2707V36.8734C56.7671 32.0809 60.6603 28.1959 65.4628 28.1959H85.9808V40.3927H70.7824V87.3435ZM85.9808 28.1959V40.3927V28.1959ZM70.7824 87.3435H56.7671H70.7824Z" fill="#3964DF"/>
</svg>
